<svg version="1.1" id="Layer_1" xmlns="http://www.w3.org/2000/svg" xmlns:xlink="http://www.w3.org/1999/xlink" x="0px" y="0px" width="100%" viewBox="0 0 363 254" xml:space="preserve">
  <path fill="#03A9F4" transform="scale(1.6)" opacity="1.000000" stroke="none" 
	d="
M210.218536,58.001095 
	C199.295212,57.974579 188.802383,58.069920 178.313309,57.913189 
	C175.277283,57.867825 173.905319,58.389168 174.098434,61.895557 
	C174.427628,67.872520 174.478134,73.899597 174.088516,79.869247 
	C173.825790,83.894478 175.427078,84.479958 178.908722,84.395844 
	C187.896072,84.178719 196.894714,84.444740 205.883453,84.258179 
	C208.889587,84.195786 210.024719,84.928970 209.877960,88.114670 
	C209.625336,93.598518 209.596588,99.113724 209.888260,104.593712 
	C210.063721,107.890083 208.750717,108.409828 205.873306,108.357697 
	C197.050095,108.197838 188.214844,108.511719 179.399307,108.206879 
	C175.347916,108.066780 173.994598,109.051903 174.082108,113.341866 
	C174.367340,127.324577 174.187881,141.316772 174.188461,155.305313 
	C174.188538,157.281403 174.139023,159.013916 172.627670,160.799515 
	C160.183411,175.501877 157.554718,192.381363 162.022018,210.722321 
	C162.430588,212.399719 163.595856,213.966263 162.527878,216.512375 
	C156.169144,207.551056 150.018219,199.389435 150.086029,187.816422 
	C150.357315,141.522598 150.168060,95.226204 150.237106,48.930893 
	C150.245453,43.334213 150.733551,37.761532 143.980499,35.564804 
	C144.874252,34.007992 145.791183,34.506512 146.521347,34.505531 
	C169.002899,34.475353 191.484741,34.528549 213.965729,34.412090 
	C217.056152,34.396084 218.341187,34.945183 218.223328,38.451355 
	C217.938339,46.928909 218.130814,55.422512 218.130814,64.676651 
	C215.447662,62.043301 213.912903,58.961491 210.218536,58.001095 
z"/>
</svg>
